<svg width="164" height="962" viewBox="0 0 164 962" fill="none" xmlns="http://www.w3.org/2000/svg">
<path d="M1.54559 645.173C-9.33087 564.141 145.201 384.766 216 353V423.19C163.201 465.989 68.6076 565.739 65.3162 645.173C62.0248 724.608 159.429 832.727 214.971 877.999L177.386 961C103.502 927.902 19.5453 779.276 1.54559 645.173Z" fill="#F7EEC1" stroke="#F7EEC1"/>
<path d="M15.6826 376.308C2.0744 272.219 195.419 41.805 284 1V91.1619C217.939 146.139 99.5881 274.271 95.47 376.308C91.352 478.345 213.221 617.228 282.713 675.382L235.688 782C143.246 739.485 38.2033 548.569 15.6826 376.308Z" fill="#EDDF98" fill-opacity="0.5" stroke="#F7EEC1"/>
</svg>
