<svg width="349" height="172" viewBox="0 0 349 172" fill="none" xmlns="http://www.w3.org/2000/svg">
<path d="M3.76947 3.1217C9.72943 33.6665 34.9555 52.4235 65.6528 57.5398C106.413 64.3332 149.678 40.8532 189.42 52.6284C207.257 57.9135 224.25 62.8395 240.301 72.4704C256.026 81.9053 267.035 96.9123 280.968 108.422C287.611 113.91 292.95 120.797 299.041 126.888C304.191 132.038 312.887 143.75 320.259 144.569C328.203 145.452 334.902 148.106 343.244 148.106" stroke="#EDDF98" stroke-width="6" stroke-linecap="round"/>
<path d="M331.387 130.362C333.88 134.451 337.125 138.394 339.389 142.51C340.404 144.356 341.856 146.487 343.149 148.151C343.548 148.663 346.657 150.853 345.656 151.14C337.425 153.491 331.679 163.72 324.445 168.542" stroke="#EDDF98" stroke-width="6" stroke-linecap="round"/>
</svg>
