<svg width="450" height="1113" viewBox="0 0 450 1113" fill="none" xmlns="http://www.w3.org/2000/svg">
<path d="M43.0001 62C97.4001 -62 337 29.6666 450 91V611.5C446 581.333 435.3 511.3 424.5 472.5C411 424 369 413.5 357.5 336.5C346 259.5 399.5 289.5 402.5 222.5C405.5 155.5 317 181 252 251C187 321 230 477.5 330.5 566C431 654.5 424.5 802.5 424.5 874C424.5 931.2 443.5 997.833 453 1024V1112.5C452 1106.5 444.9 1094.5 424.5 1094.5C399 1084 342 980 342 874C342 768 282.5 700 130 535C-22.4999 370 -24.9999 217 43.0001 62Z" fill="#CAF1DC"/>
</svg>
