<svg xmlns="http://www.w3.org/2000/svg" xmlns:xlink="http://www.w3.org/1999/xlink" viewBox="0 0 172.7 172.7"><defs><style>.cls-1{fill:none;}.cls-2{fill:#8dc1a5;}.cls-3{clip-path:url(#clip-path);}.cls-4{fill:#fff;}</style><clipPath id="clip-path"><rect class="cls-1" x="39.85" y="37.59" width="93" height="109"/></clipPath></defs><g id="Calque_2" data-name="Calque 2"><g id="Calque_1-2" data-name="Calque 1"><path class="cls-2" d="M86.35,172.7h0A86.35,86.35,0,0,1,0,86.35H0A86.35,86.35,0,0,1,86.35,0h0A86.35,86.35,0,0,1,172.7,86.35h0A86.35,86.35,0,0,1,86.35,172.7Z"/><g class="cls-3"><path class="cls-4" d="M114.47,37.43V85.6H100.14V37.43H81.35V49.7L69.68,68.19,58,49.69V37.43H39.53V114H58V83l10.82,17.24,12.54-20v66.19h18.79v-43.2h14.33v10.76H133V37.43Zm12.91,71H120V97.7H94.58v43.2H86.9v-71H81.35L68.82,89.72,58,70.38H52.46v38.07H45.09V43h7.37v8.34L69.69,78.69,86.92,51.32V43h7.68V91.15H120V43h7.37v65.48Z"/></g></g></g></svg>