<svg width="371" height="320" viewBox="0 0 371 320" fill="none" xmlns="http://www.w3.org/2000/svg">
<g clip-path="url(#clip0_5_54)">
<path d="M125.634 271.849C121.048 259.17 112.222 248.845 104.149 238.275C95.9241 227.492 88.4264 216.151 81.7356 204.347C77.9616 197.694 74.4518 190.896 71.2135 183.975C70.1978 184.653 69.175 185.334 68.1593 186.012C73.5554 190.09 78.949 194.161 84.3451 198.239C89.44 202.089 94.4992 206.096 100.1 209.206C109.575 214.466 120.588 216.474 131.346 215.807C142.591 215.112 153.421 211.556 163.225 206.065C173.749 200.164 182.984 192.12 191.098 183.249C193.159 181 195.13 178.677 197.077 176.33C198.91 174.118 200.799 171.863 203.212 170.258C205.606 168.668 208.056 168.367 210.797 169.172C213.583 169.994 216.118 170.972 219.066 171.082C224.817 171.293 230.467 169.011 235.731 166.962C241.032 164.902 246.162 162.24 249.424 157.406C254.917 149.254 254.041 138.643 252.235 129.468C250.14 118.809 246.925 107.346 239.792 98.8841C236.325 94.7684 232.003 91.5012 227.016 89.4525C222.226 87.49 217.13 86.601 211.986 86.3784C206.883 86.1581 201.767 86.6403 196.743 87.5167C190.755 88.5563 184.756 89.9688 179.117 92.2634C173.553 94.5168 168.022 97.6819 164.072 102.306C162.211 104.48 160.81 106.972 160.008 109.721C159.173 112.585 159.034 115.657 159.139 118.623C159.55 129.808 164.342 140.925 172.622 148.529C180.461 155.726 191.575 159.369 202.155 157.983C213.949 156.438 223.047 148.609 230.07 139.47C233.287 135.292 238.075 129.865 235.597 124.23C233.419 119.296 228.495 115.765 223.552 113.967C213.901 110.451 202.101 111.668 193.821 117.971C189.769 121.049 187.016 125.151 185.558 130.006C184.288 134.228 183.933 138.64 183.086 142.953C182.342 146.709 181.176 150.736 178.091 153.232C173.793 156.722 168.005 156.041 162.955 154.976C160.15 154.385 157.383 153.622 154.587 152.987C151.635 152.318 148.649 151.908 145.631 151.71C139.714 151.313 133.728 151.903 128.003 153.464C117.364 156.37 107.96 162.978 101.847 172.173C99.0094 176.432 96.9643 181.187 95.8841 186.187C95.6985 187.044 96.1597 187.868 96.899 188.278C101.912 191.072 107.757 191.613 113.39 191.118C119.704 190.571 126.015 189.038 132.131 187.425C138.971 185.626 145.701 183.238 151.804 179.624C156.681 176.735 161.061 172.985 164.713 168.645C172.021 159.973 176.521 148.961 177.057 137.611C177.374 131.029 175.825 124.552 171.177 119.693C167.239 115.583 161.613 113.09 156.03 112.301C149.419 111.367 142.756 112.449 136.363 114.17C130.213 115.826 124.197 117.998 118.369 120.565C106.65 125.728 95.6665 132.529 85.8646 140.772C76.2378 148.867 67.3548 158.317 60.6509 169.002C57.5889 173.882 55.0501 179.364 54.4575 185.148C53.7661 191.904 55.8489 198.274 59.361 204.004C63.0397 210.015 67.9141 215.215 72.3802 220.632C76.9428 226.17 81.3925 231.801 85.7511 237.495C94.4802 248.896 102.856 260.559 111.168 272.269C113.226 275.173 115.281 278.069 117.332 280.976C118.739 282.967 121.903 280.853 120.485 278.85C112.499 267.561 104.511 256.265 96.2655 245.159C88.0421 234.07 79.5259 223.232 70.6376 212.671C66.4491 207.698 62.0965 202.5 59.7305 196.361C57.633 190.903 57.6583 185.197 59.5718 179.691C61.4017 174.415 64.5289 169.658 67.8613 165.225C71.5293 160.334 75.5514 155.709 79.8675 151.387C88.4711 142.777 98.3064 135.398 108.941 129.468C114.232 126.52 119.728 123.944 125.384 121.773C131.095 119.574 137.023 117.592 143.058 116.504C148.784 115.472 154.909 115.245 160.449 117.293C165.267 119.077 169.76 122.423 171.772 127.293C174.052 132.818 173.514 139.242 172.282 144.96C171.173 150.09 169.217 154.992 166.556 159.513C160.702 169.455 151.609 176.536 140.903 180.652C134.63 183.064 128.054 184.646 121.48 186.019C116.346 187.093 110.918 187.984 105.679 187.216C103.165 186.848 100.797 186.103 98.5768 184.866C98.9151 185.563 99.2534 186.26 99.5916 186.957C101.676 177.278 107.774 168.778 115.879 163.176C124.792 157.014 136.004 154.573 146.727 155.571C152.399 156.098 157.775 157.871 163.344 158.93C168.589 159.929 174.282 160.184 178.981 157.242C186.629 152.452 186.775 142.637 188.312 134.722C189.156 130.379 190.575 126.363 193.687 123.112C196.887 119.766 201.218 117.686 205.669 116.609C214.331 114.503 225.849 116.317 231.218 124.159C231.953 125.228 232.567 126.459 232.486 127.794C232.419 128.956 231.909 130.042 231.346 131.041C230.029 133.377 228.303 135.546 226.651 137.649C223.258 141.974 219.456 146.035 214.88 149.128C206.517 154.777 196.071 155.893 186.581 152.548C176.754 149.083 169.269 141.1 165.58 131.45C163.705 126.535 162.769 121.288 162.897 116.029C162.96 113.376 163.396 110.686 164.581 108.29C165.685 106.058 167.337 104.123 169.192 102.481C173.663 98.5241 179.28 95.9963 184.922 94.2141C190.055 92.5869 195.379 91.4333 200.716 90.7486C210.034 89.5457 220.062 89.7894 228.496 94.3878C237.904 99.5183 242.801 109.469 245.791 119.33C247.218 124.035 248.406 128.86 249.141 133.725C249.8 138.125 250.121 142.664 249.388 147.074C248.688 151.273 246.98 155.217 243.83 158.161C241.783 160.068 239.232 161.406 236.678 162.496C234.117 163.588 231.484 164.561 228.841 165.456C226.342 166.304 223.794 167.031 221.154 167.243C218.452 167.46 216.032 166.965 213.485 166.095C210.768 165.169 208.163 164.528 205.295 165.21C202.531 165.865 200.179 167.602 198.141 169.514C196.068 171.462 194.325 173.724 192.495 175.895C190.603 178.143 188.646 180.341 186.636 182.477C182.678 186.67 178.474 190.634 173.961 194.227C165.334 201.096 155.608 206.673 144.95 209.666C135.188 212.414 124.714 213.018 114.789 210.765C109.744 209.619 104.952 207.697 100.499 205.068C95.2881 201.995 90.5468 198.171 85.7241 194.534C80.7038 190.739 75.6763 186.946 70.6561 183.151C69.9792 182.64 69.0771 182.51 68.3448 183.005C67.7109 183.434 67.2563 184.445 67.6019 185.188C73.3971 197.574 79.9994 209.568 87.4061 221.067C91.0841 226.766 94.9542 232.343 99.0091 237.778C102.994 243.124 107.224 248.292 111.137 253.687C115.506 259.698 119.479 266.036 122.013 273.057C122.864 275.355 126.471 274.152 125.634 271.849Z" fill="black"/>
</g>
<defs>
<clipPath id="clip0_5_54">
<rect width="313.616" height="231.406" fill="white" transform="translate(0 99.8273) rotate(-18.5608)"/>
</clipPath>
</defs>
</svg>
