<svg width="59" height="60" viewBox="0 0 59 60" fill="none" xmlns="http://www.w3.org/2000/svg">
<path d="M30.7041 25.1675C26.1653 25.1675 22.4292 25.1082 18.1329 23.8807C15.3397 23.0826 5.6996 22.2114 4.12646 19.3273C2.56387 16.4626 14.7687 6.21599 17.3411 3.78657C20.809 0.511296 27.7354 13.0953 29.1699 15.1204C30.5508 17.07 35.9318 21.0493 31.595 22.4949" stroke="#8DC1A5" stroke-width="6" stroke-linecap="round"/>
<path d="M45.849 18.0405C45.7704 14.82 44.795 12.8844 44.0672 9.97316C43.8255 9.00619 40.7997 5.32518 40.8997 4.8754C41.0718 4.10092 48.7353 4.80064 49.8579 4.62793C51.6031 4.35945 53.3045 3.30773 55.1536 3.83605C56.6398 4.26067 55.6486 14.961 55.6486 16.6547C55.6486 20.559 49.7871 18.9314 46.7399 18.9314" stroke="#8DC1A5" stroke-width="6" stroke-linecap="round"/>
<path d="M29.8133 41.2033C28.1509 41.2033 15.7412 39.8935 15.5593 42.985C15.4818 44.3024 18.8124 56.3481 19.1228 56.3481C23.1132 56.3481 29.4427 50.6929 32.2879 48.1323C35.5217 45.2219 32.3691 45.4241 30.7041 42.0942" stroke="#8DC1A5" stroke-width="6" stroke-linecap="round"/>
</svg>
