<svg width="86" height="69" viewBox="0 0 86 69" fill="none" xmlns="http://www.w3.org/2000/svg">
<path d="M28.9098 24.2247C30.7623 32.1904 35.4611 39.1874 38.3524 46.7961C40.6821 52.9269 41.7009 59.4935 44.3613 65.4793C44.6522 66.1339 51.819 58.5716 52.4911 57.9555C54.1363 56.4474 62.4386 52.4082 62.4386 50.0783C62.4386 47.1613 53.6267 40.3189 51.8346 38.2624C47.3005 33.0594 42.6211 28.5356 37.09 24.4267C32.9166 21.3265 32.4291 17.1279 28.9098 22.4069" stroke="#EDDF98" stroke-width="6" stroke-linecap="round"/>
<path d="M44.3613 9.68175C53.1634 11.5679 62.2577 15.8639 70.1138 20.1848C71.1228 20.7397 75.5644 23.5204 76.8802 22.2046C78.8013 20.2835 80.1304 15.984 81.6268 13.5194C83.585 10.294 80.7106 9.70029 77.4861 8.31838C70.9777 5.52905 63.3867 5.41515 56.5811 4.17777C54.5431 3.80722 52.2659 3.71256 50.2692 3.26886C45.1694 2.13555 45.0623 4.64401 42.5435 9.68175" stroke="#EDDF98" stroke-width="6" stroke-linecap="round"/>
<path d="M3.63356 28.2437C3.63356 36.6858 3 45.2134 3 53.5859C3 54.1255 15.0816 51.7944 16.9382 51.6852C19.5794 51.5298 14.7714 40.9275 14.404 39.7884C13.5631 37.1817 11.7258 34.8889 10.6027 32.3618C9.32472 29.4864 6.54645 29.9962 3.63356 29.5108" stroke="#EDDF98" stroke-width="6" stroke-linecap="round"/>
</svg>
