<svg width="404" height="621" viewBox="0 0 404 621" fill="none" xmlns="http://www.w3.org/2000/svg">
<g clip-path="url(#clip0_5_73)">
<path d="M226.935 59.1353C230.243 53.0022 234.208 46.3758 240.419 42.809C246.429 39.3624 253.465 40.503 258.317 45.3625C260.529 47.5823 262.14 50.5197 262.525 53.649C262.768 55.6811 262.842 57.9937 260.487 58.5849C258.618 59.0464 256.298 58.75 254.418 58.5301C246.214 57.5916 238.757 53.6612 233.196 47.6058C232.694 47.0656 231.654 46.9444 231.009 47.2254C221.866 51.1399 212.735 55.0565 203.592 58.971C195.337 62.5039 186.97 65.8624 178.868 69.7554C171.91 73.0968 165.199 77.0055 159.613 82.3967C153.411 88.3838 149.641 96.0808 146.879 104.144C143.82 113.097 141.298 122.25 138.578 131.309C135.742 140.765 132.937 150.239 130.203 159.725C124.735 178.685 119.538 197.739 114.982 216.941C110.48 235.902 106.494 255.048 103.651 274.334C102.5 282.117 102.248 290.831 108.55 296.598C113.887 301.482 121.523 300.678 126.05 295.21C131.212 288.97 130.523 280.938 129.978 273.384C129.336 264.467 131.308 256.421 135.106 248.36C138.79 240.541 143.455 233.25 147.237 225.483C151.261 217.223 153.629 208.471 155.36 199.478C157.118 190.335 158.363 181.055 161.095 172.129C163.761 163.382 168.271 155.408 173.084 147.678C182.21 133.037 192.711 118.027 193.379 100.138C193.54 95.9958 193.06 91.9684 192.017 87.962C191.581 86.2895 189.277 86.1746 188.269 87.31C182.585 93.7446 181.574 102.708 179.778 110.772C177.639 120.397 175.226 129.951 172.551 139.435C167.268 158.225 160.986 176.733 153.923 194.927C140.096 230.568 123.418 265.118 104.311 298.22C94.8936 314.539 84.7571 330.399 74.2957 346.071C64.3026 361.038 54.228 376.063 46.365 392.282C42.4277 400.391 39.0945 408.796 36.6088 417.467C34.4575 424.969 32.1187 433.618 37.0892 440.536C41.0924 446.094 47.9128 448.817 54.2151 450.819C57.8516 451.976 61.7261 453.341 65.592 452.631C69.2356 451.966 72.1443 449.565 74.3287 446.668C79.4108 439.926 82.3738 431.457 84.5059 423.38C86.8186 414.607 88.0287 405.595 89.2328 396.618C91.8256 377.396 95.621 358.455 101.554 339.969C103.04 335.331 104.65 330.737 106.362 326.173C104.973 325.729 103.582 325.297 102.205 324.854C100.227 353.489 95.4868 381.905 87.9754 409.601C86.1245 416.405 84.1252 423.171 81.9448 429.881C79.8257 436.376 77.3486 442.737 75.2064 449.228C73.6894 453.837 72.3606 458.873 73.2277 463.754C74.197 469.213 77.8652 472.997 82.9554 474.979C89.8975 477.688 97.495 479.164 104.736 480.841C112.788 482.718 120.898 484.332 129.06 485.716C130.332 485.937 131.269 485.075 131.613 483.92C140.069 455.387 142.068 425.6 145.281 396.168C146.903 381.293 148.859 366.417 152.151 351.809C155.401 337.373 160.325 323.454 165.342 309.551C170.981 293.922 176.587 278.204 179.581 261.816C180.093 259.01 175.897 258.327 175.243 261.061C161.482 318.103 142.501 373.914 132.509 431.837C131.289 438.918 130.208 446.022 129.278 453.152C128.438 459.691 127.49 466.306 127.583 472.9C127.737 483.865 132.592 495.422 144.179 498.283C148.978 499.476 154.029 498.186 157.644 494.811C161.215 491.476 162.79 486.602 163.387 481.869C164.074 476.412 163.57 470.95 163.112 465.496C162.515 458.446 162.125 451.371 161.926 444.295C160.991 411.436 164.264 378.51 171.406 346.425C171.938 344.051 168.033 342.728 167.25 345.106C160.74 364.647 154.417 384.411 151.586 404.867C148.867 424.543 149.732 444.509 151.958 464.188C153.245 475.493 154.969 486.755 156.697 497.994C157.129 500.786 161.514 500.381 161.086 497.566C158.128 478.32 155.172 459.003 154.439 439.513C153.679 419.351 156.047 399.637 161.123 380.121C164.034 368.938 167.592 357.939 171.25 346.981C169.861 346.537 168.47 346.105 167.093 345.663C161.071 372.676 157.835 400.258 157.443 427.929C157.247 441.729 157.868 455.493 159.04 469.244C159.713 477.226 160.458 491.237 150.47 493.98C145.664 495.301 140.553 492.684 137.328 489.227C133.431 485.046 132.224 479.176 132.019 473.636C131.79 467.352 132.736 461.022 133.519 454.808C134.411 447.826 135.455 440.87 136.625 433.936C141.297 406.461 148.044 379.394 155.306 352.513C163.459 322.295 172.261 292.25 179.595 261.806C178.148 261.555 176.702 261.303 175.256 261.052C169.921 290.282 156.239 317.071 149.072 345.804C141.87 374.662 140.437 404.488 136.843 433.914C134.811 450.528 132.064 467.078 127.3 483.157C128.142 482.565 128.998 481.963 129.853 481.361C116.264 479.045 102.798 476.083 89.5041 472.412C84.2731 470.966 78.6051 469.086 77.5996 463.013C76.7958 458.179 78.4627 453.119 80.0928 448.612C89.1866 423.467 96.3922 397.803 101.024 371.453C103.686 356.283 105.528 340.97 106.591 325.606C106.746 323.345 103.373 321.769 102.435 324.287C95.8614 341.863 90.8458 360.007 87.5709 378.491C84.5073 395.76 83.9088 413.863 77.769 430.454C76.2873 434.45 74.5047 438.394 72.2514 442.029C70.3984 445.007 67.8302 448.123 64.0966 448.415C60.4596 448.7 56.4252 447.021 53.0497 445.802C49.8995 444.659 46.7026 443.304 44.0298 441.266C41.2936 439.182 39.2203 436.438 38.6886 432.985C38.0428 428.75 39.35 424.319 40.4384 420.254C42.7104 411.784 45.9224 403.597 49.6711 395.682C57.178 379.865 66.8311 365.208 76.5315 350.69C86.4447 335.84 96.1637 320.872 105.218 305.479C123.812 273.885 140.129 240.929 153.925 206.974C160.907 189.791 167.2 172.321 172.691 154.592C175.469 145.615 178.032 136.564 180.367 127.461C182.618 118.63 184.274 109.66 186.535 100.842C187.535 96.9412 188.982 93.2131 191.683 90.156C190.434 89.9386 189.184 89.7213 187.935 89.5039C192.274 106.083 183.718 122.515 175.201 136.191C170.769 143.308 166.064 150.282 162.27 157.772C158.284 165.611 155.797 173.948 154.063 182.547C152.299 191.248 151.132 200.078 148.875 208.669C146.713 216.92 143.071 224.425 138.965 231.861C135.033 238.982 130.823 246.054 128.168 253.778C126.915 257.421 125.965 261.164 125.62 265C125.246 269.07 125.617 273.102 125.901 277.155C126.327 283.271 126.058 293.042 118.699 295.265C115.125 296.348 111.718 294.146 109.754 291.255C107.438 287.849 107.189 283.528 107.514 279.534C108.227 270.637 110.176 261.694 111.833 252.926C113.581 243.698 115.515 234.502 117.596 225.344C125.869 189.093 136.513 153.459 147.256 117.877C149.76 109.578 152.01 100.961 156.474 93.4564C160.4 86.8471 166.281 81.8884 172.802 77.9706C179.537 73.9231 186.847 70.9528 194.047 67.8679C202.611 64.1982 211.175 60.5285 219.751 56.8608C224.04 55.0212 228.315 53.1911 232.604 51.3515C231.875 51.2247 231.146 51.098 230.417 50.9712C235.778 56.8128 242.981 60.8303 250.765 62.3988C254.289 63.1071 258.711 63.7215 262.224 62.712C266.139 61.5819 267.268 57.8342 267.052 54.1387C266.689 47.6648 262.399 41.9022 256.879 38.7614C250.969 35.3977 244.055 35.7442 238.212 39.053C231.217 43.0195 226.707 50.3735 223.007 57.2604C221.609 59.7459 225.597 61.6194 226.935 59.1353Z" fill="black"/>
<path d="M156.668 497.131C155.09 505.245 153.521 513.373 151.942 521.487C150.662 528.092 147.756 536.44 150.658 542.986C153.012 548.293 159.5 551.9 164.752 548.154C170.672 543.929 169.562 536.265 168.528 530.08C167.069 521.342 167.982 512.457 171.332 504.234C172.015 502.565 170.434 500.42 168.577 501.229C162.723 503.773 159.481 509.119 156.782 514.631C154.162 519.967 151.783 526.38 146.394 529.542C143.023 531.517 139.072 532.165 136.063 534.799C133.562 536.985 132.01 539.944 131.306 543.17C129.838 549.897 132.247 557.013 136.882 561.954C142.423 567.851 150.215 570.815 157.813 573.042C164.13 574.892 170.965 576.093 177.551 575.094C183.733 574.155 189.622 570.926 192.034 564.875C195.015 557.398 191.834 549.1 187.309 542.975C178.33 530.808 163.506 523.117 148.561 521.673C135.574 520.415 113.329 523.457 113.477 540.629C113.545 548.255 118.569 555.48 124.129 560.308C130.54 565.867 138.344 569.787 146.266 572.69C154.524 575.711 163.1 577.727 171.691 579.591C178.628 581.096 186.362 582.953 193.287 580.417C199.918 577.995 203.571 571.589 202.998 564.673C202.407 557.588 198.331 550.873 193.214 546.099C187.687 540.943 180.961 537.056 175.977 531.316C170.395 524.899 169.276 517.15 170.642 508.952C171.308 504.921 172.424 500.968 173.56 497.043C172.907 497.645 172.252 498.258 171.599 498.859C177.331 498.593 183.045 499.384 188.462 501.268C189.564 501.65 190.87 501.401 191.398 500.218C194.038 494.29 194.105 487.879 193.566 481.518C193.047 475.255 192.357 469.082 192.511 462.782C192.791 451.034 195.066 439.395 197.993 428.048C203.945 405.002 213.003 382.735 216.921 359.18C219.064 346.314 219.497 333.14 216.938 320.302C216.482 317.995 213.024 317.524 212.581 320.14C205.53 361.631 188.453 400.532 179.848 441.645C177.722 451.809 176.125 462.088 175.372 472.443C175.064 476.75 174.305 481.73 175.92 485.872C177.644 490.283 181.721 491.719 185.909 492.995C191.027 494.541 196.145 496.087 201.275 497.634C204.899 498.729 210.413 501.631 213.936 498.919C215.354 497.819 215.975 496.104 216.409 494.428C217.137 491.683 217.653 488.854 218.221 486.069C219.269 480.865 220.202 475.642 221.007 470.396C224.599 446.868 225.673 422.949 224.263 399.195C224.118 396.739 220.218 396.549 219.905 399.032C218.19 412.246 216.487 425.462 214.773 438.677C213.897 445.423 213.024 452.159 212.148 458.905C211.362 464.929 210.335 470.97 210.171 477.054C209.894 487.349 214.207 499.002 225.536 501.092C228.192 501.578 230.899 501.501 233.583 501.693C236.715 501.917 239.526 502.68 242.38 503.951C247.158 506.081 251.846 509.076 257.192 509.447C267.945 510.185 274.163 499.792 274.817 490.278C275.247 484.109 274.216 477.972 274.047 471.818C273.878 466.009 274.255 460.212 274.946 454.458C277.715 431.55 285.505 409.586 288.158 386.657C289.625 374.043 289.368 361.273 285.914 348.995C282.375 336.38 275.821 324.73 273.414 311.776C272.9 309.042 268.688 309.346 269.025 312.204C273.437 348.504 273.328 385.305 268.606 421.565C267.467 430.303 265.879 438.952 264.567 447.66C263.316 455.95 262.449 464.426 263.352 472.805C264.14 480.056 266.17 487.642 271.344 493.046C276.457 498.392 284.144 499.419 290.736 496.264C297.732 492.906 301.953 486.252 304.61 479.196C307.628 471.165 309.634 462.649 311.172 454.218C314.318 437.095 314.995 419.565 314.011 402.2C313.01 384.522 310.283 366.972 306.609 349.651C302.953 332.369 298.005 315.458 293.662 298.355C291.416 289.48 289.545 280.504 288.617 271.382C287.703 262.381 287.549 253.335 287.188 244.311C286.476 226.135 283.626 208.398 279.767 190.639C278.826 186.317 277.858 182.014 276.881 177.697C276.271 174.97 271.876 175.361 272.492 178.125C276.322 195.092 280.177 212.123 281.844 229.464C283.517 246.914 282.634 264.526 285.601 281.867C288.512 298.841 293.861 315.298 298.028 331.977C302.173 348.641 305.641 365.498 307.777 382.539C309.881 399.361 310.728 416.416 309.429 433.337C308.773 441.838 307.6 450.296 305.817 458.625C304.148 466.437 302.27 474.63 298.696 481.813C295.493 488.238 289.154 494.738 281.282 493.607C274.27 492.602 270.549 485.353 268.94 479.187C264.706 463.032 269.54 445.796 271.917 429.731C277.051 395.008 278.03 359.646 274.801 324.696C274.407 320.385 273.941 316.074 273.414 311.776C271.948 311.915 270.493 312.055 269.025 312.204C271.069 323.201 275.882 333.284 279.603 343.75C283.244 353.999 284.901 364.547 284.606 375.422C284.024 397.27 277.007 418.355 272.861 439.654C270.8 450.269 269.374 461.067 269.647 471.898C269.889 481.676 273.555 495.206 264.889 502.611C260.94 505.988 256.136 505.378 251.663 503.48C246.89 501.458 242.429 498.597 237.258 497.698C232.006 496.784 226.015 498.065 221.401 494.784C217.446 491.963 215.403 487.128 214.799 482.447C213.962 475.95 215.242 469.346 216.075 462.913C216.985 455.898 217.896 448.883 218.804 441.88C220.625 427.85 222.432 413.83 224.253 399.801C222.796 399.75 221.341 399.687 219.895 399.638C221.075 419.576 220.49 439.588 218.09 459.415C216.875 469.415 215.214 479.374 213.095 489.228C212.867 490.261 212.649 491.308 212.41 492.339C212.239 493.119 212.067 494.722 211.405 495.309C210.154 496.403 206.818 494.75 205.516 494.356C200.783 492.925 196.039 491.492 191.306 490.061C187.466 488.905 181.263 488.255 179.894 483.787C178.637 479.707 179.613 474.646 179.967 470.49C180.807 460.794 182.363 451.162 184.388 441.648C188.463 422.47 194.376 403.755 200.203 385.06C206.772 363.944 213.261 342.743 216.965 320.903C215.508 320.852 214.053 320.789 212.607 320.74C217.185 343.688 211.797 366.713 205.22 388.697C198.524 411.089 190.202 433.437 188.475 456.932C188.009 463.381 188.066 469.837 188.686 476.272C189.399 483.617 190.565 491.374 187.458 498.341C188.437 497.987 189.414 497.644 190.394 497.29C184.189 495.139 177.79 494.169 171.229 494.481C170.184 494.526 169.533 495.389 169.268 496.297C167.218 503.352 165.217 510.677 165.784 518.104C166.328 525.121 169.56 531.069 174.43 536.028C183.239 544.995 197.982 551.301 198.703 565.654C199.035 572.313 194.073 576.585 187.754 577.143C180.928 577.742 173.841 575.592 167.261 574.09C152.646 570.749 136.37 566.333 125.405 555.442C120.862 550.933 116.397 543.711 118.365 537.058C120.421 530.1 128.503 527.562 134.887 526.492C148.356 524.223 162.686 527.693 173.718 535.737C179.24 539.76 184.442 545.002 187.171 551.375C189.741 557.363 189.582 564.58 183.642 568.444C179.059 571.424 172.903 571.39 167.682 570.708C161.19 569.864 154.577 567.868 148.686 565.008C142.686 562.094 137.091 557.462 135.705 550.632C135.126 547.791 135.175 544.701 136.289 541.999C137.556 538.895 139.937 537.129 142.971 535.858C146.016 534.588 149.022 533.478 151.518 531.256C153.593 529.4 155.209 527.167 156.626 524.78C159.447 520.004 161.182 514.551 164.52 510.091C166.027 508.077 167.834 506.39 170.169 505.366C169.248 504.36 168.324 503.365 167.415 502.361C164.979 508.348 163.645 514.646 163.508 521.116C163.439 524.392 163.731 527.649 164.278 530.877C164.802 533.96 165.607 537.281 164.863 540.393C164.338 542.589 162.768 545.104 160.3 545.318C157.698 545.545 155.483 543.134 154.644 540.903C153.514 537.942 154.028 534.576 154.578 531.549C155.189 528.176 155.869 524.815 156.526 521.45C158.046 513.6 159.569 505.739 161.089 497.889C161.537 495.107 157.199 494.352 156.668 497.131Z" fill="black"/>
<path d="M277.524 177.976C277.056 171.687 276.576 165.407 276.108 159.118C275.96 157.09 272.625 156.26 271.92 158.389C268.916 167.506 268.637 176.716 269.901 186.17C271.185 195.712 272.822 205.208 274.304 214.712C277.307 233.965 280.297 253.229 283.3 272.483C284.77 281.913 286.239 291.356 287.709 300.786C288.355 304.95 288.768 309.359 290.792 313.143C292.535 316.413 295.784 319.111 299.603 319.359C308.467 319.923 311.194 308.22 312.317 301.564C313.842 292.452 313.112 283.15 312.393 273.993C311.685 264.909 311.326 255.874 311.612 246.761C311.905 237.47 312.683 228.204 313.435 218.945C314.948 200.381 316.38 181.732 314.382 163.142C313.393 153.89 311.745 144.727 310.119 135.578C308.425 126.061 306.731 116.544 305.038 107.027C304.276 102.771 303.666 98.3994 302.081 94.3583C300.621 90.6249 298.259 87.414 295.35 84.6797C292.502 82.0037 289.195 79.8437 285.848 77.8435C281.973 75.525 278 73.3564 273.876 71.507C271.863 70.6087 269.815 69.7758 267.721 69.0661C265.797 68.4097 263.728 67.6326 261.695 67.3981C257.758 66.9397 254.861 69.5458 254.801 73.4555C254.743 77.0083 256.567 80.0899 257.847 83.2797C259.221 86.6882 260.138 90.2556 260.686 93.8898C262.967 109.074 259.805 124.443 260.993 139.675C261.281 143.36 261.866 146.988 262.733 150.571C263.305 152.899 266.481 152.045 266.961 150.174C268.129 145.719 264.139 142.487 260.415 141.076C257.945 140.134 255.347 139.789 252.75 139.373C249.586 138.859 246.415 138.379 243.239 137.933C230.353 136.097 217.398 134.725 204.416 133.849C194.756 133.194 182.882 132.391 175.08 139.351C173.021 141.185 171.506 143.936 172.658 146.699C173.636 149.025 176.081 149.975 178.312 150.649C184.511 152.49 190.785 154.106 197.042 155.683C209.645 158.876 222.321 161.712 235.085 164.183C241.37 165.395 247.669 166.527 253.984 167.566C257.241 168.097 260.499 168.616 263.753 169.098C266.68 169.536 269.934 170.424 272.855 169.597C277.242 168.359 279.131 163.599 280.089 159.596C280.66 157.205 281.227 154.563 280.454 152.152C279.691 149.756 277.583 148.173 275.293 147.358C272.455 146.34 269.444 145.769 266.53 145.047C263.41 144.278 260.292 143.497 257.172 142.728C250.842 141.162 244.502 139.583 238.171 138.017C218.69 133.186 193.47 125.105 177.349 141.998C175.525 143.92 173.993 146.085 172.687 148.384C172.224 149.197 172.531 150.442 173.255 151.009C181.102 157.08 191.379 158.093 200.362 161.741C209.467 165.446 217.782 170.813 224.943 177.54C225.161 176.291 225.378 175.042 225.595 173.792C222.318 175.022 218.8 174.076 215.453 173.72C212.245 173.389 208.984 173.429 205.794 173.887C199.446 174.82 193.414 177.226 187.985 180.619C175.99 188.113 167.884 200.179 162.978 213.243C159.987 221.183 158.035 229.459 156.594 237.811C156.327 239.349 157.985 240.984 159.531 240.252C168.107 236.168 171.947 227.458 177.205 220.115C180.024 216.173 183.333 212.912 187.755 210.785C192.981 208.287 198.674 206.799 204.097 204.811C209.749 202.743 215.57 200.658 220.889 197.83C223.176 196.607 225.368 195.106 227.019 193.081C228.567 191.17 229.446 188.928 230.136 186.605C231.172 183.115 231.424 177.762 234.776 175.556C236.525 174.407 238.774 174.631 240.52 175.698C242.546 176.932 243.482 179.156 243.595 181.452C244.046 191.122 230.744 194.897 224.593 188.596C223.647 189.718 222.701 190.841 221.755 191.963C224.776 195.015 228.95 196.92 233.225 197.283C235.446 197.466 237.609 197.295 239.765 196.752C240.763 196.497 241.706 196.148 242.639 195.715C243.664 195.238 244.583 194.683 245.743 195.004C246.879 195.321 247.916 196.144 248.861 196.809C250.062 197.65 251.251 198.488 252.44 199.326C254.745 200.943 257.06 202.573 259.365 204.189C263.985 207.435 268.606 210.67 273.215 213.915C278.472 217.606 283.73 221.296 288.978 224.974C290.019 225.703 291.882 225.682 292.385 224.232C293.352 221.481 294.331 218.732 295.298 215.981C295.786 214.612 296.277 213.232 296.754 211.861C297.162 210.681 297.563 209.535 297.354 208.271C296.925 205.671 294.111 204.442 292.095 203.222C289.722 201.784 287.333 200.38 284.924 199.019C275.19 193.513 265.111 188.626 254.751 184.393C248.932 182.011 243.027 179.851 237.064 177.885C237.307 179.023 237.562 180.164 237.807 181.291C239.852 179.192 242.494 177.709 245.342 177.025C248.626 176.238 251.763 176.772 254.967 177.674C258.194 178.581 261.478 179.641 264.869 179.194C267.601 178.836 270.403 177.667 272.096 175.399C273.059 174.113 273.535 172.611 273.737 171.038C273.928 169.593 273.91 168.125 274.714 166.859C276.178 164.539 278.617 163.057 279.97 160.623C283.053 155.095 278.558 150.107 273.883 147.589C271.006 146.04 267.775 145.085 264.666 144.115C261.072 142.99 257.44 142.012 253.764 141.218C250.225 140.459 246.652 139.897 243.063 139.428C240.171 139.056 237.261 138.657 234.47 137.85C232.077 137.148 229.635 136.044 227.922 134.173C225.909 131.976 225.343 129.065 225.332 126.18C225.313 123.066 225.938 119.958 226.286 116.861C226.679 113.366 226.92 109.857 227.032 106.338C227.535 90.4229 224.868 74.4448 219.373 59.5119C218.394 56.8511 214.265 58.385 215.245 61.0458C220.056 74.0843 222.567 87.8785 222.71 101.785C222.773 108.552 221.972 115.145 221.233 121.856C220.575 127.831 221.035 134.095 225.884 138.287C230.142 141.97 236.1 142.935 241.492 143.659C248.736 144.633 255.86 145.956 262.862 148.115C265.894 149.047 269.041 150 271.859 151.479C273.638 152.42 275.902 153.863 276.484 155.93C277.137 158.272 274.972 160.1 273.496 161.594C271.28 163.854 269.893 166.068 269.527 169.269C269.366 170.742 269.277 172.216 268.127 173.279C267.147 174.181 265.758 174.63 264.452 174.808C260.744 175.295 257.119 173.592 253.578 172.774C246.611 171.169 239.428 173.339 234.464 178.445C233.55 179.382 233.898 181.421 235.206 181.851C254.788 188.296 273.61 196.98 291.184 207.77C291.647 208.053 292.126 208.315 292.558 208.641C293.096 209.044 293.055 208.87 292.974 209.404C292.775 210.752 291.977 212.257 291.526 213.549C290.492 216.479 289.457 219.409 288.421 222.351C289.56 222.108 290.701 221.854 291.828 221.609C282.586 215.128 273.356 208.649 264.116 202.156C259.539 198.941 255.03 195.606 250.37 192.52C248.254 191.115 245.88 190.035 243.296 190.706C241.213 191.237 239.461 192.469 237.293 192.807C232.614 193.53 227.915 191.974 224.591 188.608C223.75 187.758 222.213 188.027 221.483 188.865C220.646 189.84 220.923 191.127 221.741 191.973C228.154 198.545 240.484 197.14 245.572 189.612C248.619 185.114 249.021 178.487 245.383 174.184C241.765 169.909 235.125 169.028 230.975 173.012C227.383 176.463 227.149 181.784 225.67 186.245C224.859 188.714 223.563 190.752 221.455 192.316C219.128 194.044 216.445 195.15 213.796 196.262C207.494 198.919 201.076 201.282 194.584 203.454C189.015 205.321 183.391 207.369 178.975 211.379C174.813 215.159 171.976 220.028 168.956 224.71C166.101 229.134 162.883 233.793 157.985 236.123C158.963 236.936 159.942 237.75 160.921 238.564C163.367 224.5 167.244 210.161 175.624 198.368C182.69 188.444 193.343 180.372 205.573 178.376C208.922 177.827 212.284 177.756 215.644 178.174C219.505 178.655 223.381 179.329 227.13 177.92C228.736 177.318 228.971 175.285 227.782 174.173C220.621 167.446 212.241 161.973 203.181 158.145C198.662 156.238 193.972 154.898 189.264 153.531C184.623 152.188 179.937 150.622 176.082 147.64C176.275 148.519 176.458 149.385 176.65 150.265C181.281 142.074 189.691 137.376 198.896 136.392C208.09 135.406 217.357 137.423 226.241 139.588C237.527 142.338 248.796 145.18 260.073 147.975C262.906 148.683 265.741 149.378 268.585 150.088C270.711 150.612 273.379 150.898 275.215 152.194C276.976 153.442 276.371 155.755 276.013 157.54C275.649 159.359 275.169 161.159 274.299 162.806C273.536 164.247 272.419 165.387 270.727 165.522C269.424 165.617 268.063 165.285 266.773 165.096C265.332 164.881 263.892 164.666 262.451 164.451C256.705 163.571 250.959 162.619 245.225 161.598C233.771 159.546 222.367 157.204 211.026 154.564C205.264 153.228 199.515 151.811 193.79 150.327C190.973 149.599 188.16 148.847 185.362 148.074C182.906 147.397 180.199 146.926 177.867 145.877C173.458 143.883 182.597 139.789 184.338 139.234C188.552 137.893 193.107 137.744 197.486 137.851C208.617 138.131 219.81 139.422 230.855 140.748C236.645 141.445 242.419 142.235 248.177 143.118C250.894 143.531 253.656 143.892 256.347 144.456C257.98 144.799 259.676 145.392 261.046 146.357C262.181 147.162 262.903 148.015 262.54 149.417C263.946 149.281 265.362 149.158 266.768 149.021C263.305 134.811 265.836 119.987 265.793 105.574C265.769 98.5155 265.122 91.4085 262.946 84.667C261.939 81.5487 260.175 78.6681 259.367 75.5011C259.14 74.6155 258.752 73.0108 259.383 72.1912C260.262 71.0453 262.621 72.0753 263.688 72.3801C271.62 74.6774 279.253 78.7577 286.177 83.2151C289.219 85.1861 292.248 87.4406 294.556 90.2729C296.944 93.1907 298.347 96.5685 299.213 100.222C300.214 104.472 300.836 108.846 301.601 113.149C302.377 117.526 303.153 121.903 303.941 126.282C305.514 135.123 307.172 143.955 308.522 152.84C309.876 161.774 310.78 170.761 310.923 179.806C311.062 188.529 310.621 197.234 309.99 205.93C308.732 223.37 306.774 240.795 307.054 258.3C307.191 267.035 308.211 275.696 308.613 284.417C308.998 292.824 308.727 301.643 305.529 309.546C304.444 312.217 302.505 315.693 299.056 314.831C295.676 313.981 294.041 310.563 293.256 307.471C292.185 303.281 291.79 298.839 291.127 294.565C290.444 290.133 289.747 285.71 289.064 281.278C286.216 262.981 283.366 244.695 280.519 226.398C279.113 217.348 277.696 208.295 276.291 199.245C274.952 190.636 273.018 181.815 273.468 173.064C273.685 168.729 274.49 164.377 275.84 160.251C274.44 160.007 273.052 159.766 271.652 159.522C272.119 165.811 272.6 172.091 273.067 178.38C273.348 181.218 277.735 180.801 277.524 177.976Z" fill="black"/>
<path d="M322.766 527.276C325.554 527.761 326.32 523.426 323.52 522.939C320.734 522.442 319.966 526.789 322.766 527.276Z" fill="white"/>
</g>
<defs>
<clipPath id="clip0_5_73">
<rect width="309.076" height="576.531" fill="white" transform="translate(98.8059) rotate(9.86806)"/>
</clipPath>
</defs>
</svg>
