<svg width="451" height="399" viewBox="0 0 451 399" fill="none" xmlns="http://www.w3.org/2000/svg">
<g clip-path="url(#clip0_9_285)">
<path d="M97.8378 40.3435C115.819 37.6435 132.851 46.0189 149.265 52.0687C157.435 55.082 165.837 57.8412 174.551 58.6909C178.923 59.1137 183.336 59.1123 187.678 58.425C190.056 58.0487 192.406 57.3691 194.822 57.2497C197.754 57.1026 200.343 58.3601 202.914 59.6142C222.504 69.1548 243.623 76.0553 265.261 78.9343C270.128 79.5852 275.088 79.9464 279.991 79.5475C282.421 79.3539 284.844 78.9475 287.208 78.3474C289.944 77.6545 292 77.0539 294.748 78.1303C299.823 80.1263 304.751 82.4404 309.861 84.3472C315 86.2593 320.209 88.0023 325.462 89.5616C348.849 96.5162 373.267 99.7958 397.654 99.3723C396.995 98.0762 396.338 96.7709 395.679 95.4748C385.139 110.24 369.839 123.175 351.084 124.835C341.852 125.655 332.091 123.781 324.375 118.463C317.289 113.58 312.719 106.167 308.527 98.8356C303.771 90.5234 299.171 81.895 291.708 75.6448C290.171 74.3653 287.568 75.525 287.807 77.6156C288.696 85.5812 284.68 92.9943 278.816 98.1762C272.169 104.045 263.506 106.538 254.813 107.305C250.05 107.73 245.262 107.68 240.49 107.441C235.803 107.208 231.024 107.006 226.402 106.181C221.499 105.312 217.345 103.326 213.995 99.5821C211.035 96.2667 208.685 92.3176 206.435 88.5026C201.027 79.3181 196.875 69.4394 193.934 59.204C193.188 56.5856 189.165 57.5731 189.353 60.1917C189.917 68.0478 185.782 75.4288 179.897 80.4147C173.361 85.9496 164.905 88.3656 156.521 89.23C152.049 89.6909 147.54 89.7415 143.056 89.6048C138.658 89.4746 134.118 89.1738 129.918 87.7942C121.516 85.0351 117.555 77.5549 114.632 69.7715C110.627 59.114 106.944 48.3255 103.113 37.6144C102.295 35.328 99.109 35.7534 98.566 37.9651C96.1523 47.7361 99.0238 57.5744 102.078 66.8518C105.021 75.801 107.535 84.5825 108.212 94.0252C109.505 112.064 105.344 130.368 96.6576 146.213C91.8029 155.062 85.4726 163.171 77.9078 169.875C79.0942 170.263 80.2805 170.65 81.4669 171.038C78.9998 163.283 74.9086 154.251 65.3632 154.493C61.4602 154.591 57.8164 156.879 56.6256 160.687C55.3434 164.776 57.3356 169.243 60.4448 171.972C64.9981 175.963 71.5527 175.877 77.2445 175.675C77.1181 174.105 76.9807 172.543 76.8543 170.973C70.7342 171.66 64.5991 172.325 58.4738 173.04C54.286 173.526 49.24 175.348 49.5159 180.451C49.7168 184.272 52.9652 187.537 56.4395 188.741C60.8548 190.257 65.163 188.065 68.42 185.128C70.1228 183.596 71.588 181.847 73.0456 180.086C73.7442 179.239 74.4277 178.369 75.175 177.569C76.0908 176.59 76.8185 176.199 78.0497 176.96C81.9503 179.368 83.0691 184.794 84.6923 188.721C86.47 193.052 89.1991 197.639 93.933 199.148C97.8785 200.403 102.802 198.52 104.74 194.824C105.884 192.639 105.974 189.314 103.423 188.208C100.783 187.066 98.1923 185.971 95.7119 184.494C90.6635 181.495 86.21 177.484 82.6278 172.832C81.7012 171.629 79.9517 171.423 78.89 172.615C68.4157 184.387 60.7193 198.25 56.0615 213.281C53.6787 220.955 51.9578 228.84 49.1214 236.371C46.3368 243.729 42.1758 249.924 37.4443 256.136C33.111 261.818 28.7125 267.642 26.6162 274.563C24.6736 280.975 25.4062 287.682 28.583 293.564C31.5953 299.146 36.7454 303.49 42.7974 305.402C50.1674 307.716 58.4718 306.155 65.3751 310.024C68.4269 311.734 71.9567 314.12 75.5909 312.646C78.5277 311.453 79.3175 307.579 82.6931 307.371C85.5318 307.207 88.4708 308.598 91.0952 309.516C94.3613 310.652 97.6913 311.704 101.196 311.425C102.142 311.354 103.232 310.523 103.326 309.513C105.041 289.498 105.356 269.363 104.156 249.306C103.579 239.738 102.479 230.244 101.473 220.711C100.686 213.225 100.174 205.302 102.409 198.004C103.431 194.682 105.225 191.497 107.855 189.18C110.947 186.452 114.931 185.265 118.737 183.9C126.958 180.95 133.489 175.692 139.305 169.291C145.449 162.521 151.109 155.264 156.848 148.148C162.865 140.681 168.756 133.113 174.32 125.292C180.591 116.48 186.457 107.371 191.539 97.8257C193.833 93.5249 196.253 89.1135 197.749 84.4508C199.04 80.4214 199.326 75.9045 196.662 72.3473C195.494 73.3847 194.327 74.4221 193.16 75.4595C214.091 92.9166 243.605 98.4363 269.713 91.1454C277.032 89.1002 284.033 85.9868 290.461 81.9391C289.236 81.3522 288.001 80.7636 286.774 80.1859C288.339 106.4 282.228 132.834 287.915 158.809C290.483 170.559 295.675 181.143 303.47 190.318C311.25 199.47 320.563 207.174 328.31 216.349C332.593 221.413 336.348 227.135 342.024 230.781C347.29 234.158 354.001 235.176 359.596 232.076C361.733 230.895 360.29 227.588 358.073 227.774C351.588 228.306 344.823 226.403 338.835 229.746C336.373 231.125 334.216 233.329 333.265 236.021C332.187 239.082 333.156 241.484 334.361 244.314C335.753 247.582 333.529 250.955 332.227 253.926C330.705 257.403 329.184 260.87 327.671 264.349C324.589 271.401 321.506 278.452 318.413 285.512C315.33 292.564 312.248 299.615 309.154 306.675C307.632 310.151 306.111 313.619 304.598 317.097C303.143 320.423 301.684 323.816 300.962 327.386C299.794 333.158 300.985 339.98 305.935 343.758C307.045 344.601 308.234 345.229 309.57 345.635C311.024 346.083 313.152 345.861 314.404 346.77C316.102 348.012 316.378 351.128 317.269 352.929C320.11 358.651 326.4 358.899 332.023 359.059C334.853 359.142 337.587 359.38 340.207 360.528C342.986 361.745 345.524 363.425 348.16 364.893C353.005 367.595 358.692 369.303 363.772 366.134C368.395 363.243 370.283 357.425 370.35 352.233C370.435 345.575 367.32 339.369 366.717 332.792C366.075 325.709 367.922 318.731 369.695 311.941C371.45 305.252 373.091 298.6 373.233 291.646C373.354 285.561 372.423 279.547 371.11 273.623C368.469 261.649 363.969 250.101 362.13 237.951C361.346 232.79 360.322 226.403 362.354 221.4C363.09 219.59 364.571 217.401 366.83 217.761C368.762 218.069 370.606 220.318 369.82 222.292C369.033 224.266 366.44 225.014 364.657 224.072C364.165 225.554 363.675 227.027 363.184 228.509C367.612 229.346 372.609 230.223 375.96 233.507C378.11 235.613 379.008 239.508 377.331 242.178C374.965 245.946 370.213 242.648 368.342 240.134C365.514 236.325 364.184 231.762 360.863 228.272C359.708 227.055 357.092 227.876 356.994 229.615C356.642 235.8 353.239 241.447 347.836 244.546C345.411 245.931 341.501 247.391 338.867 245.76C336.818 244.49 336.885 241.746 337.567 239.715C338.523 236.842 340.91 234.844 343.197 233.02C345.894 230.86 348.665 228.762 350.667 225.904C354.65 220.242 355.591 213.429 355.612 206.653C355.635 199.561 354.594 192.45 355.08 185.349C355.496 179.387 357.125 173.617 359.546 168.178C364.565 156.883 372.342 147.127 379.36 137.054C387.171 125.845 394.56 113.759 396.027 99.8907C396.211 98.101 394.712 96.6749 392.915 97.2284C374.297 102.996 354.287 103.613 335.265 99.4038C325.815 97.3106 316.657 94.0244 308.054 89.585C303.638 87.3101 299.483 84.6715 295.346 81.9403C290.876 78.9829 286.254 76.525 280.85 75.9167C275.492 75.3172 270.155 76.0852 264.826 76.605C259.81 77.0976 254.744 77.2446 249.703 76.9545C239.581 76.3767 229.495 74.2402 220.021 70.6445C215.321 68.8537 210.744 66.7211 206.363 64.2607C204.172 63.0305 202.025 61.7221 199.944 60.3205C197.863 58.9189 195.871 57.0926 193.55 56.0969C188.907 54.1056 184.127 56.861 179.715 58.2264C175.171 59.6339 170.524 60.6667 165.812 61.3319C146.852 64.0198 127.125 60.9544 109.99 52.3581C107.855 51.292 105.767 50.1292 103.73 48.8993C101.123 47.331 99.0605 51.5795 101.651 53.135C118.319 63.1316 137.979 67.8264 157.38 66.8735C167.017 66.3996 176.581 64.4811 185.644 61.2C188.058 60.331 190.2 59.4778 192.577 60.8874C194.756 62.1825 196.743 63.8257 198.867 65.2065C203.175 67.9989 207.69 70.4653 212.371 72.5599C221.642 76.7221 231.556 79.5655 241.632 80.8934C246.725 81.5678 251.881 81.8604 257.022 81.7755C262.365 81.6905 267.624 80.927 272.947 80.5405C278.505 80.1311 283.699 80.6324 288.659 83.3367C293.14 85.7775 297.209 88.9185 301.634 91.4543C310.222 96.3806 319.475 100.127 329.024 102.718C348.048 107.879 368.341 108.208 387.5 103.599C389.856 103.036 392.191 102.383 394.499 101.667C393.465 100.78 392.421 99.8911 391.387 99.0043C390.011 112.035 383.142 123.403 375.793 133.951C368.324 144.677 359.951 155.099 354.815 167.217C352.282 173.191 350.675 179.456 350.353 185.944C349.972 193.555 351.098 201.133 350.88 208.745C350.783 212.213 350.342 215.817 349.049 219.049C347.699 222.424 345.525 225.076 342.719 227.359C337.727 231.438 332.009 235.697 332.436 242.903C332.649 246.506 334.913 249.536 338.38 250.624C342.301 251.854 346.573 250.568 350.056 248.672C356.619 245.082 361.209 237.941 361.63 230.472C360.343 230.92 359.047 231.367 357.761 231.815C360.929 235.151 362.016 239.879 364.928 243.397C367.793 246.857 372.208 249.593 376.831 248.181C380.403 247.089 382.497 243.586 382.799 240.004C383.128 236.023 381.653 232.23 378.656 229.57C374.646 226.008 369.158 224.827 364.043 223.86C361.397 223.36 360.216 227.065 362.57 228.297C367.609 230.939 374.496 227.363 374.694 221.533C374.878 215.979 368.921 211.578 363.686 213.489C358.573 215.356 356.879 221.421 356.647 226.314C356.359 232.415 357.286 238.553 358.566 244.499C361.153 256.502 365.652 268.059 367.609 280.193C368.61 286.393 368.869 292.655 367.858 298.869C366.706 305.931 364.364 312.729 362.963 319.734C361.569 326.759 361.625 333.482 363.37 340.428C364.801 346.134 366.985 352.385 364.453 358.1C363.531 360.183 362.059 362.017 359.855 362.791C357.291 363.69 354.653 362.845 352.308 361.721C346.966 359.155 342.314 355.28 336.231 354.601C331.701 354.1 323.647 355.709 321.337 350.529C320.325 348.254 319.913 345.756 318.165 343.86C317.16 342.768 315.897 342.126 314.475 341.761C312.879 341.354 311.203 341.421 309.723 340.604C304.019 337.461 304.822 329.652 306.636 324.531C309.19 317.321 312.679 310.356 315.742 303.358C321.907 289.255 328.083 275.143 334.248 261.04C335.754 257.599 337.457 254.185 338.72 250.659C339.252 249.166 339.645 247.646 339.6 246.053C339.542 244.275 338.786 242.778 338.087 241.186C336.96 238.649 337.693 236.502 339.822 234.754C342.27 232.739 345.302 232.361 348.38 232.357C351.747 232.35 355.094 232.752 358.454 232.474C357.945 231.043 357.439 229.603 356.93 228.172C352.559 230.592 346.973 228.759 343.267 225.936C338.704 222.452 335.52 217.577 331.826 213.259C324.456 204.635 315.749 197.286 308.285 188.75C304.522 184.447 301.09 179.814 298.444 174.733C295.899 169.835 294.081 164.546 292.795 159.194C290.036 147.792 289.814 135.891 290.239 124.227C290.777 109.425 292.352 94.6266 291.461 79.8041C291.356 77.9693 289.236 77.127 287.773 78.0509C266.188 91.6317 237.898 93.1229 214.57 83.1065C207.945 80.2604 201.767 76.5195 196.236 71.902C194.235 70.2275 191.084 72.8105 192.735 75.0142C194.916 77.9231 193.844 81.7634 192.597 84.8504C190.922 88.9801 188.794 92.9665 186.671 96.8769C182.12 105.284 176.979 113.358 171.467 121.161C166.058 128.82 160.319 136.243 154.456 143.557C148.683 150.754 142.944 158.024 136.839 164.936C131.184 171.358 125.002 176.643 116.846 179.557C113.011 180.926 109.056 182.215 105.806 184.76C103.007 186.949 100.791 189.775 99.2784 192.995C96.0388 199.911 95.8035 207.924 96.2536 215.413C96.7804 224.328 98.1923 233.189 98.8932 242.098C100.631 264.245 100.556 286.519 98.6623 308.651C99.3688 308.016 100.077 307.372 100.793 306.739C95.2981 307.17 90.3809 303.629 85.0675 302.846C82.5046 302.467 79.8189 302.737 77.668 304.3C76.5098 305.137 75.7564 306.224 74.8752 307.325C73.8953 308.542 72.9563 308.576 71.5513 308.022C68.4026 306.774 65.7993 304.726 62.4797 303.772C58.9222 302.754 55.2052 302.58 51.5436 302.215C48.0323 301.868 44.5084 301.385 41.3317 299.776C38.7159 298.456 36.3991 296.52 34.6045 294.212C30.9116 289.433 29.437 283.499 30.6994 277.582C32.1047 271.01 36.3131 265.429 40.3047 260.181C44.7601 254.311 49.1382 248.493 52.0696 241.681C55.0824 234.693 56.953 227.288 59.0081 219.974C61.3073 211.776 64.1524 203.844 68.1357 196.3C72.0572 188.878 76.8853 182.003 82.463 175.739C81.217 175.667 79.9711 175.595 78.7252 175.523C84.6942 183.267 92.6825 189.28 101.876 192.679C101.479 192.239 101.083 191.79 100.695 191.351C101.327 193.603 97.9198 194.995 96.1731 194.876C93.3156 194.682 91.266 191.586 90.0924 189.3C87.1846 183.622 86.2552 176.533 80.3626 172.913C73.3918 168.638 69.2552 178.266 64.9283 181.981C63.1035 183.547 60.4888 185.223 57.9891 184.357C56.4175 183.82 53.8709 181.879 54.2017 179.925C54.3777 178.892 55.5767 178.398 56.4783 178.156C58.538 177.585 60.813 177.554 62.9339 177.321C67.6993 176.781 72.4629 176.25 77.2282 175.71C80.254 175.37 79.8775 170.9 76.838 171.008C72.2983 171.168 66.4195 171.545 62.9858 167.939C60.8997 165.749 59.7121 161.501 63.0569 159.828C65.8617 158.419 69.3761 159.563 71.5163 161.619C74.5197 164.501 75.7728 168.809 76.9968 172.661C77.4131 173.969 79.4143 174.827 80.5559 173.823C94.5514 161.43 104.443 145.111 109.484 127.136C114.546 109.098 114.313 89.9254 108.72 72.0537C105.386 61.4078 100.413 50.2218 103.208 38.8904C101.696 39.0079 100.174 39.1237 98.6614 39.2412C102.437 49.7881 106.088 60.3882 109.988 70.8912C113.116 79.3184 117.451 87.7719 126.189 91.4493C130.9 93.4343 135.983 94.0108 141.033 94.2545C145.731 94.4796 150.458 94.499 155.153 94.1282C164.348 93.3979 173.852 91.0358 181.3 85.3564C189.198 79.3298 194.787 70.0052 194.052 59.8505C192.529 60.1773 190.996 60.5022 189.471 60.8383C192.32 70.797 196.356 80.3752 201.461 89.387C203.905 93.6997 206.517 98.0921 209.732 101.888C213.096 105.865 217.108 108.65 222.132 110.099C227.194 111.554 232.604 111.722 237.834 112.029C243.017 112.336 248.222 112.522 253.41 112.187C262.94 111.568 272.658 109.141 280.258 103.116C288.063 96.9179 293.644 87.486 292.497 77.2727C291.2 77.9302 289.893 78.586 288.596 79.2435C302.443 90.8389 305.789 110.783 320.596 121.57C336.991 133.522 359.326 131.386 375.917 121.135C385.18 115.414 392.939 107.431 399.241 98.6063C400.455 96.915 399.418 94.6642 397.266 94.7088C375.282 95.0869 353.284 92.332 332.052 86.5912C321.651 83.7807 311.456 80.2313 301.547 75.9869C299.226 74.9912 296.943 73.7916 294.492 73.1267C291.831 72.403 289.387 72.9206 286.791 73.6305C281.864 74.9753 276.733 75.2636 271.656 74.9092C261.129 74.1875 250.564 71.7876 240.414 68.967C229.707 65.993 219.256 62.1262 209.183 57.4281C204.463 55.2304 199.814 52.3064 194.416 52.5826C191.999 52.7021 189.65 53.3817 187.271 53.758C185.022 54.1108 182.758 54.2879 180.483 54.3189C171.745 54.406 163.098 52.0324 154.908 49.1693C136.463 42.7259 117.586 32.6671 97.4295 35.6858C94.4582 36.0942 94.8188 40.8005 97.8378 40.3435Z" fill="black"/>
<path d="M112.388 277.03C135.249 280.149 158.059 283.644 180.81 287.501C203.562 291.359 226.252 295.589 248.863 300.188C261.631 302.784 274.377 305.5 287.093 308.325C290.065 308.983 290.932 304.345 287.969 303.689C265.445 298.684 242.842 294.038 220.161 289.761C197.489 285.487 174.737 281.581 151.936 278.04C139.064 276.04 126.17 274.16 113.262 272.403C110.263 271.99 109.369 276.622 112.388 277.03Z" fill="black"/>
<path d="M111.158 312.895C134.353 317.047 157.539 321.198 180.733 325.36C204.002 329.527 227.272 333.694 250.541 337.861C263.608 340.205 276.675 342.54 289.732 344.883C292.727 345.42 293.603 340.784 290.608 340.247C267.413 336.094 244.227 331.943 221.034 327.781C197.764 323.614 174.495 319.447 151.225 315.281C138.159 312.936 125.091 310.601 112.034 308.259C109.047 307.733 108.162 312.367 111.158 312.895Z" fill="black"/>
<path d="M108.331 286.999C111.363 285.863 114.328 284.57 117.218 283.118C117.791 282.833 118.168 282.261 117.935 281.612C117.74 281.066 117 280.609 116.426 280.895C113.537 282.346 110.57 283.648 107.539 284.775C106.94 284.998 106.61 285.675 106.822 286.282C107.038 286.87 107.731 287.222 108.331 286.999Z" fill="black"/>
<path d="M109.679 300.727C120.818 298.155 131.532 294.072 141.586 288.645C142.925 287.919 141.579 285.984 140.253 286.693C130.381 292.021 119.816 295.978 108.887 298.503C107.411 298.838 108.211 301.064 109.679 300.727Z" fill="black"/>
<path d="M132.155 306.597C138.507 299.596 146.355 294.04 155.098 290.411C156.496 289.83 155.716 287.599 154.307 288.187C145.196 291.978 137.002 297.737 130.382 305.042C129.351 306.173 131.135 307.72 132.155 306.597Z" fill="black"/>
<path d="M152.192 310.518C157.905 303.233 164.642 296.843 172.214 291.523C173.455 290.654 172.131 288.704 170.881 289.572C163.145 294.995 156.236 301.535 150.408 308.971C149.47 310.167 151.255 311.714 152.192 310.518Z" fill="black"/>
<path d="M176.353 316.178C182.66 310.533 188.107 304.043 192.632 296.889C193.443 295.602 191.31 294.575 190.51 295.855C186.108 302.82 180.712 309.137 174.568 314.631C173.436 315.637 175.231 317.176 176.353 316.178Z" fill="black"/>
<path d="M200.892 297.394C201.706 306.162 203.762 314.77 207.012 322.961C207.572 324.373 209.798 323.584 209.238 322.172C206.059 314.167 204.048 305.778 203.245 297.205C203.108 295.691 200.757 295.87 200.892 297.394Z" fill="black"/>
<path d="M219.342 301.879C222.621 307.829 225.144 314.173 226.892 320.745C227.278 322.21 229.506 321.412 229.118 319.956C227.319 313.191 224.673 306.689 221.294 300.558C220.555 299.227 218.611 300.56 219.342 301.879Z" fill="black"/>
<path d="M235.78 304.39C243.403 310.968 250.22 318.393 256.122 326.547C257.013 327.781 258.967 326.451 258.075 325.216C252.068 316.908 245.1 309.311 237.34 302.601C236.18 301.614 234.632 303.395 235.78 304.39Z" fill="black"/>
<path d="M254.197 307.525C261.974 315.726 270.174 323.518 278.755 330.872C279.915 331.859 281.463 330.078 280.304 329.09C271.723 321.736 263.522 313.944 255.745 305.743C254.705 304.634 253.164 306.427 254.197 307.525Z" fill="black"/>
<path d="M275.924 311.304C280.675 315.371 285.424 319.447 290.174 323.513C291.334 324.501 292.882 322.719 291.723 321.732C286.972 317.665 282.223 313.589 277.473 309.522C276.324 308.528 274.776 310.309 275.924 311.304Z" fill="black"/>
<path d="M144.862 111.188C142.709 120.086 140.411 128.938 135.535 136.784C131.144 143.838 125.338 149.885 119.783 156.028C116.635 159.505 113.555 163.033 110.758 166.797C109.856 168.009 111.638 169.566 112.542 168.344C117.623 161.507 123.664 155.485 129.218 149.044C134.918 142.439 139.834 135.349 142.824 127.108C144.654 122.057 145.927 116.844 147.183 111.626C147.539 110.148 145.216 109.718 144.862 111.188Z" fill="black"/>
<path d="M167.146 99.3523C163.604 116.976 155.119 133.484 142.947 146.712C139.5 150.449 135.769 153.912 131.79 157.059C130.603 157.996 131.925 159.955 133.123 159.01C147.601 147.572 158.816 132.137 165.209 114.841C167.018 109.949 168.449 104.919 169.474 99.8019C169.767 98.3016 167.446 97.863 167.146 99.3523Z" fill="black"/>
<path d="M121.973 133.904C118.986 149.405 112.035 164.004 101.867 176.093C100.888 177.252 102.671 178.809 103.651 177.64C114.081 165.236 121.23 150.252 124.294 134.343C124.576 132.85 122.255 132.412 121.973 133.904Z" fill="black"/>
<path d="M87.2051 210.735C89.7532 220.657 89.7821 230.985 89.5036 241.16C89.2177 251.678 88.9551 262.125 89.5827 272.643C89.9479 278.801 90.478 284.951 91.0098 291.091C91.1375 292.604 93.4904 292.415 93.3628 290.902C92.4207 279.911 91.4745 268.891 91.4656 257.846C91.461 247.541 92.3201 237.246 91.8431 226.948C91.5807 221.213 90.8684 215.518 89.4386 209.957C89.0446 208.481 86.8279 209.272 87.2051 210.735Z" fill="black"/>
<path d="M76.6356 210.342C75.7721 231.651 73.4683 252.899 69.7517 273.889C68.6918 279.854 67.5205 285.798 66.2396 291.711C65.9204 293.197 68.2412 293.636 68.5605 292.15C73.1246 271.05 76.2735 249.655 77.937 228.132C78.3962 222.14 78.7498 216.148 78.9903 210.143C79.0536 208.638 76.6989 208.836 76.6356 210.342Z" fill="black"/>
<path d="M300.611 128.463C302.334 139.697 304.564 150.845 307.297 161.877C308.688 167.488 310.201 173.066 311.857 178.602C313.322 183.518 314.74 188.529 316.71 193.271C318.694 198.034 321.453 202.464 325.919 205.238C327.21 206.039 328.236 203.919 326.954 203.12C323.159 200.76 320.777 196.834 319.075 192.815C317.131 188.242 315.756 183.411 314.335 178.667C311.165 168.12 308.462 157.439 306.251 146.651C304.999 140.556 303.908 134.425 302.964 128.274C302.737 126.781 300.376 126.959 300.611 128.463Z" fill="black"/>
<path d="M324.821 135.035C324.008 157.602 327.527 180.296 335.081 201.582C337.22 207.614 339.698 213.527 342.472 219.304C343.12 220.656 345.352 219.887 344.698 218.515C334.947 198.273 329.082 176.24 327.498 153.835C327.048 147.517 326.948 141.18 327.174 134.846C327.229 133.33 324.873 133.537 324.821 135.035Z" fill="black"/>
<path d="M339.922 171.077C338.629 180.109 337.926 189.223 337.838 198.339C337.775 205.491 337.392 213.927 342.246 219.789C343.209 220.951 345.17 219.631 344.199 218.459C339.541 212.835 340.119 204.532 340.193 197.68C340.291 188.921 340.992 180.171 342.236 171.504C342.459 170.019 340.14 169.571 339.922 171.077Z" fill="black"/>
<path d="M337.689 261.508C338.064 272.343 336.463 283.209 332.93 293.46C329.499 303.423 324.542 312.761 319.692 322.091C316.925 327.426 314.183 332.775 311.751 338.269C311.134 339.651 313.254 340.695 313.872 339.304C318.265 329.388 323.662 319.96 328.4 310.206C333.087 300.567 336.987 290.558 338.797 279.963C339.844 273.813 340.249 267.551 340.033 261.317C339.992 259.801 337.639 259.991 337.689 261.508Z" fill="black"/>
<path d="M345.823 266.242C345.27 277.46 344.261 288.649 342.809 299.792C341.537 309.577 339.859 319.372 339.971 329.265C340.04 334.751 340.72 340.21 342.283 345.47C342.72 346.926 344.936 346.134 344.509 344.68C341.707 335.239 342.03 325.285 343.111 315.598C344.265 305.214 345.916 294.905 346.873 284.494C347.437 278.359 347.859 272.207 348.166 266.052C348.25 264.54 345.895 264.739 345.823 266.242Z" fill="black"/>
</g>
<defs>
<clipPath id="clip0_9_285">
<rect width="396" height="331" fill="white" transform="translate(61.4619) rotate(10.7011)"/>
</clipPath>
</defs>
</svg>
