<svg width="1919" height="90" viewBox="0 0 1919 90" fill="none" xmlns="http://www.w3.org/2000/svg">
<path d="M1879 32.9999C1845 32.9999 1723 89.5 1653 89.5L1918.5 89.5V41L1879 32.9999Z" fill="#FBF4D2"/>
<path d="M326 5.99998C207.6 -13.2 58.8333 62.8333 0.5 89.5H1653C1583 89.5 1406 33.5 1298 21.4999C1190 9.49994 1001 -34 754 56.9999C612.637 109.081 474 30 326 5.99998Z" fill="#FBF4D2"/>
<path d="M0.5 89.5C58.8333 62.8333 207.6 -13.2 326 5.99998C474 30 612.637 109.081 754 56.9999C1001 -34 1190 9.49994 1298 21.4999C1406 33.5 1583 89.5 1653 89.5M0.5 89.5L1918.5 89.5M0.5 89.5H1653M1653 89.5C1723 89.5 1845 32.9999 1879 32.9999M1653 89.5L1918.5 89.5M1879 32.9999C1906.2 32.9999 1908.5 41 1918.5 41M1879 32.9999L1918.5 41M1918.5 41V89.5" stroke="#FBF4D2"/>
</svg>
