<svg width="1920" height="95" viewBox="0 0 1920 95" fill="none" xmlns="http://www.w3.org/2000/svg">
<path d="M1878.5 38.4319C1844.5 38.4319 1722.5 94.9319 1652.5 94.9319H1946.5V50.9319L1878.5 38.4319Z" fill="#FBF4D2"/>
<path d="M312.5 10C206 -29.9999 58.3333 68.2653 0 94.9319H1652.5C1582.5 94.9319 1405.5 38.9319 1297.5 26.9319C1189.5 14.9319 1000.5 -28.568 753.5 62.4319C612.137 114.513 452.86 62.7172 312.5 10Z" fill="#FBF4D2"/>
<path d="M0 94.9319C58.3333 68.2653 206 -29.9999 312.5 10C452.86 62.7172 612.137 114.513 753.5 62.4319C1000.5 -28.568 1189.5 14.9319 1297.5 26.9319C1405.5 38.9319 1582.5 94.9319 1652.5 94.9319M0 94.9319H1946.5M0 94.9319H1652.5M1652.5 94.9319C1722.5 94.9319 1844.5 38.4319 1878.5 38.4319M1652.5 94.9319H1946.5M1878.5 38.4319C1905.7 38.4319 1936.5 50.9319 1946.5 50.9319M1878.5 38.4319L1946.5 50.9319M1946.5 50.9319V94.9319" stroke="#FBF4D2"/>
</svg>
