<svg width="1920" height="66" viewBox="0 0 1920 66" fill="none" xmlns="http://www.w3.org/2000/svg">
<path d="M1796.5 41.0003C1763.29 45.6423 1699.05 66.0002 1630 66.0002H1920V18.0085L1796.5 41.0003Z" fill="#FBF4D2"/>
<path d="M305.5 6C188.712 -14.9418 57.5392 36.9143 0 66.0002H1630C1560.96 66.0002 1386.37 40.3684 1279.84 27.2797C1173.31 14.1911 1005.88 50.8088 743.242 66.0003C579 75.5003 451.485 32.1773 305.5 6Z" fill="#FBF4D2"/>
<path d="M0 66.0002C57.5392 36.9143 188.712 -14.9418 305.5 6C451.485 32.1773 579 75.5003 743.242 66.0003C1005.88 50.8087 1173.31 14.1911 1279.84 27.2797C1386.37 40.3684 1560.96 66.0002 1630 66.0002M0 66.0002H1920M0 66.0002H1630M1630 66.0002C1699.05 66.0002 1763.29 45.6423 1796.5 41.0003M1630 66.0002H1920M1796.5 41.0003C1863.57 31.6261 1910.14 18.0085 1920 18.0085M1796.5 41.0003L1920 18.0085M1920 18.0085V66.0002" stroke="#FBF4D2"/>
</svg>
